#!OML:ASF F:\VICON\USERDATA\INSTALL\rory3\rory3.ASF
:FULLY-SPECIFIED
:DEGREES
113
root -0.18168468681062588 17.798696522410946 54.32423904928452 -2.4829917596419904 -2.1747233583882135 -2.5228972064822823
lfemur -20.84528533281685 -2.6990345847249295 -16.21562662847359
ltibia 27.395646786638196
lfoot 0.500567911837333 2.9967677024199935
ltoes -1.9151109062941527
rfemur -5.703239395116232 5.540687029688698 25.510780684993662
rtibia 29.21764360032899
rfoot -3.466556684789764 2.63392071425685
rtoes 5.511105808033979
lowerback 9.070590136534783 0.20925598560020922 3.059943379944389
upperback -0.20468627638190107 0.7331185686549364 1.3667930831139994
thorax -5.7506948738441475 0.32177031901077713 0.4016875568195109
lowerneck -15.943169854615412 -2.8376152849134963 -3.470591978298665
upperneck 22.389037489022737 -3.3316557902210766 0.9249198501361873
head 9.606319192269806 -1.6840337907640763 0.8195491114451784
lclavicle 1.4586517260183607e-16 2.36131115364592e-16
lhumerus -35.30646560742709 6.735446983629019 79.88276847330619
lradius 24.631578468058503
lwrist 6.6706001293219535
lhand -29.490768013488566 18.357321465973026
lfingers 7.12502
lthumb -2.7665625561333225 48.088817507023
rclavicle 1.4700709377320543e-16 2.3702651364257555e-16
rhumerus -23.889435666039404 -15.908120978754809 -76.88237339378492
rradius 21.915466526501863
rwrist 9.524584129949304
rhand -18.08385774495144 22.88591553826457
rfingers 7.12502
rthumb 7.849550609280077 -7.732916320966019
114
root -0.1803720282217267 17.791664081871378 54.461759541209474 -2.350794844150814 -2.022963672863402 -2.524703186497784
lfemur -21.41251023570487 -3.436843767005321 -16.398798893986175
ltibia 24.677248214425006
lfoot -0.52857888009438 2.571128037713482
ltoes -1.6529450659687162
rfemur -6.231631550880725 4.965816696074349 25.268119896474126
rtibia 30.765730650577495
rfoot -0.3000269501728603 2.6285643306673423
rtoes 7.257316322138929
lowerback 8.979309318702999 0.13892497279216323 3.0857349786934707
upperback -0.2602458757738672 0.6205368525590349 1.34527109536473
thorax -5.827671951138618 0.2578231424726307 0.3725658643730676
lowerneck -15.939639793065089 -2.8462295418772703 -3.4444679198040915
upperneck 22.388850033335494 -3.3437977186901042 0.9350987609398067
head 9.607888197928936 -1.688896916170439 0.8243694248007203
lclavicle 1.45634915175386e-16 2.3595537166036607e-16
lhumerus -35.616443420675054 7.036173835568715 79.7436011357849
lradius 24.065136768590985
lwrist 5.972388807567992
lhand -29.302135606823395 18.608843788802613
lfingers 7.12502
lthumb -2.588150993079266 48.29136486224233
rclavicle 1.4761480200868769e-16 2.3749380987325e-16
rhumerus -23.761884664163013 -15.644743863597515 -76.87099773533444
rradius 21.913664029750016
rwrist 9.755323984511785
rhand -18.121998678625598 22.863643660155482
rfingers 7.12502
rthumb 7.863912055012719 -7.652637508359305
115
root -0.17742627772949515 17.76787987351846 54.59251109119988 -2.341198615695091 -2.005028924386706 -2.4000421137324817
lfemur -21.709749756935025 -3.8095203952174534 -16.784684663659704
ltibia 22.780108956218086
lfoot -1.8470639837350369 2.3959133261618906
ltoes -1.3869088236355807
rfemur -7.181932646150836 4.255113565265637 24.837066617532937
rtibia 32.87602839504003
rfoot 2.7310136022480247 2.1286730315174394
rtoes 9.521345980672711
lowerback 9.006004177360037 0.0954292153621771 2.918581555242146
upperback -0.287293977340184 0.541113601452968 1.2998587967675492
thorax -5.916615945778165 0.2109491539163244 0.41912730581415025
lowerneck -15.94038681673603 -2.85169555839029 -3.408180397471072
upperneck 22.360865292003517 -3.3619467323745895 0.9688422534535904
head 9.599945252008952 -1.6944043326824003 0.83640308476952
lclavicle 1.4607028693889635e-16 2.362898665873647e-16
lhumerus -35.75257597698667 7.385037638320169 79.52302498044195
lradius 23.588431872510665
lwrist 5.416325599907013
lhand -29.01772676579127 18.894577616830357
lfingers 7.12502
lthumb -2.352968454062122 48.49799941461526
rclavicle 1.471746119476044e-16 2.371553586782807e-16
rhumerus -23.82986719590708 -15.573832080267945 -76.8420950141002
rradius 21.835289918216382
rwrist 9.856531286868261
rhand -18.191496667382324 22.810237184373793
rfingers 7.12502
rthumb 7.831261336579724 -7.827045250961154
116
root -0.17297464832412546 17.749396000900354 54.70116756573878 -2.2953605181276626 -1.9587365462094664 -2.470742736047903
lfemur -21.686453277985606 -3.8346677239151687 -17.141847858564873
ltibia 21.701213552278844
lfoot -3.2893204000689873 2.371872963131742
ltoes -1.2183111873287902
rfemur -8.520946493153684 3.4461445793180707 24.511994777303414
rtibia 35.177326639948994
rfoot 5.025087536253457 0.8430066795578393
rtoes 11.534848751314764
lowerback 9.024352507774656 0.02133136357890203 2.8968256015478793
upperback -0.31162955300677464 0.44028512128284336 1.300294951942863
thorax -5.934054207336614 0.16102874678650297 0.4590703756186876
lowerneck -15.954531443749733 -2.8543094859942024 -3.370976874515344
upperneck 22.315723903155536 -3.3681185086723957 1.0068972792714488
head 9.58288365250123 -1.6967709817865215 0.8515493306460452
lclavicle 1.463009942879689e-16 2.364679018554979e-16
lhumerus -35.72528690747327 7.606150027527331 79.30355254300125
lradius 23.310747075597924
lwrist 5.065646437314264
lhand -28.859098281721522 19.01111277745971
lfingers 7.12502
lthumb -2.2056318882636794 48.70761929877819
rclavicle 1.4687358839397275e-16 2.369238881144992e-16
rhumerus -23.993414489963314 -15.620319352871698 -76.84465826276941
rradius 21.659957087122663
rwrist 9.981713339430765
rhand -18.246708415996963 22.80247618843007
rfingers 7.12502
rthumb 7.862753547114298 -7.8268241427820975
117
root -0.1662749486239662 17.72361157949067 54.780731109136 -2.3680486174649036 -1.9945130289892643 -2.3668923371491783
lfemur -21.27808215049739 -3.6547724556723384 -17.70829310409487
ltibia 21.465823517864553
lfoot -5.134055514946225 2.5166632912639875
ltoes -0.7327181841598049
rfemur -10.037009281144986 2.5844205071857145 24.03136922551625
rtibia 37.5713630129912
rfoot 5.662022291359328 -1.4028818364504119
rtoes 12.64320004464619
lowerback 9.170469873882023 -0.03135721844128048 2.7411890787221305
upperback -0.3295453594682251 0.3567373889866928 1.2867471776022206
thorax -5.9777745875253165 0.11915650323426435 0.5476204297308919
lowerneck -15.961272362176912 -2.858052043488066 -3.3502503549439764
upperneck 22.268730973819455 -3.3786292803352054 1.0536340532361372
head 9.565366680686765 -1.6996113462539724 0.8675580718607936
lclavicle 1.465187139384707e-16 2.36634346981425e-16
lhumerus -35.508934463351245 7.72680829347277 79.11616210648312
lradius 23.006911330795706
lwrist 4.562850953582741
lhand -28.64392386534413 19.39009694197496
lfingers 7.12502
lthumb -2.029894839845744 49.12204574132688
rclavicle 1.4667186244709015e-16 2.367687462803453e-16
rhumerus -24.258175342484662 -15.979161028420876 -76.84753851182374
rradius 21.3447240902083
rwrist 10.351982996561613
rhand -18.26881188182804 22.787226466707303
rfingers 7.12502
rthumb 7.900535640010198 -7.774158981472316
118
root -0.15972321125194888 17.71524846049033 54.86591308890313 -2.4196944910573173 -2.027915005413196 -2.480651460524627
lfemur -20.73925412763168 -3.5616813570223327 -18.040656862462846
ltibia 20.904200512686458
lfoot -6.61720620598816 2.6689164113320434
ltoes -0.5269067536905543
rfemur -11.709634228219016 1.8114311864504298 23.797009256127065
rtibia 39.68014837667502
rfoot 4.900311220625156 -4.464428226246388
rtoes 12.39669545440066
lowerback 9.237188068082647 -0.0889633219329749 2.7298160235626803
upperback -0.3359640287896614 0.27759915510794264 1.3248198189423306
thorax -5.954318752288243 0.07639770082395753 0.6014867183055977
lowerneck -15.967155321077788 -2.8561510126829246 -3.325813063858899
upperneck 22.27138612758082 -3.379977508072239 1.0703606101162748
head 9.565962456244293 -1.7002752260994873 0.8708264168209399
lclavicle 1.463735735993391e-16 2.3652202982723357e-16
lhumerus -35.20382167623889 7.923287971754603 78.90227288579504
lradius 22.70115334210714
lwrist 4.026712662588194
lhand -28.426913413880992 19.74800402981016
lfingers 7.12502
lthumb -1.830767575401662 49.53071723555795
rclavicle 1.4659986004832915e-16 2.367134064053092e-16
rhumerus -24.575453932143116 -16.634480599798167 -76.82175149457852
rradius 20.84456760237152
rwrist 10.87566627707183
rhand -18.281525687393813 22.776390174531745
rfingers 7.12502
rthumb 7.965972903462978 -7.725142789805044
119
root -0.1552755414198994 17.696353940217175 54.9666147936328 -2.552312733085545 -2.300555901684465 -2.412334655300025
lfemur -20.02028425463427 -3.2859348307456226 -18.514165763947023
ltibia 20.650808202602107
lfoot -8.105933515045747 2.6848727388659093
ltoes -0.8003511127682192
rfemur -13.55288234526203 1.2626809221651323 23.515379631030747
rtibia 41.79573911995091
rfoot 3.5491170313495193 -7.491078530422858
rtoes 10.772612221726646
lowerback 9.354303847039397 -0.050241124656490554 2.5209699869664846
upperback -0.32553196258046413 0.31596778632006245 1.330154421483108
thorax -5.916860987087831 0.10280220701618978 0.6710749028386697
lowerneck -15.988505052586321 -2.8514986496946455 -3.306245096939907
upperneck 22.303106293069142 -3.37964094880248 1.077013940929632
head 9.57631791787024 -1.7000639939291506 0.870808183695677
lclavicle 1.459667244539652e-16 2.362092305747667e-16
lhumerus -34.82918878668768 8.024540785436573 78.73142406760674
lradius 22.412298718237903
lwrist 3.219603221958236
lhand -28.00973789759581 20.37021485029773
lfingers 7.12502
lthumb -1.4728742699155337 50.17432363313687
rclavicle 1.4657923548261272e-16 2.3669754278957366e-16
rhumerus -24.98363169019591 -17.469963013133473 -76.78379494638611
rradius 20.25889629744947
rwrist 11.295249906647708
rhand -18.30316217425105 22.758114559109956
rfingers 7.12502
rthumb 8.014691059480239 -7.745325937032803
